<svg width="512" height="512" viewBox="0 0 512 512" fill="none" xmlns="http://www.w3.org/2000/svg">
  <rect width="512" height="512" rx="128" fill="white"/>
  <defs>
    <linearGradient id="violet_grad" x1="0%" y1="0%" x2="100%" y2="100%">
      <stop offset="0%" stop-color="#8b5cf6"/>
      <stop offset="100%" stop-color="#6d28d9"/>
    </linearGradient>
    <filter id="soft_glow" x="-20%" y="-20%" width="140%" height="140%">
      <feGaussianBlur in="SourceAlpha" stdDeviation="8"/>
      <feOffset dx="0" dy="4" result="offsetblur"/>
      <feComponentTransfer>
        <feFuncA type="linear" slope="0.3"/>
      </feComponentTransfer>
      <feMerge>
        <feMergeNode/>
        <feMergeNode in="SourceGraphic"/>
      </feMerge>
    </filter>
  </defs>
  
  <!-- Modern Folder/Code Icon -->
  <path d="M128 160C128 142.327 142.327 128 160 128H240L288 176H352C369.673 176 384 190.327 384 208V352C384 369.673 369.673 384 352 384H160C142.327 384 128 369.673 128 352V160Z" fill="url(#violet_grad)" filter="url(#soft_glow)"/>
  
  <!-- Code Brackets <> -->
  <path d="M210 240L180 270L210 300" stroke="white" stroke-width="20" stroke-linecap="round" stroke-linejoin="round"/>
  <path d="M302 240L332 270L302 300" stroke="white" stroke-width="20" stroke-linecap="round" stroke-linejoin="round"/>
  <path d="M275 230L237 310" stroke="white" stroke-width="20" stroke-linecap="round" stroke-linejoin="round"/>
</svg>
